<?xml version="1.0" encoding="UTF-8"?>
<svg version="1.1" xmlns="http://www.w3.org/2000/svg" width="900" height="292">
<path d="M0 0 C2.10640401 1.23890513 4.21318826 2.47716398 6.3203125 3.71484375 C7.39829102 4.34890137 8.47626953 4.98295898 9.58691406 5.63623047 C14.99964295 8.80718614 20.43764438 11.93402449 25.875 15.0625 C34.18338424 19.84678775 42.4749377 24.65832527 50.75 29.5 C59.38776678 34.55097023 68.05819729 39.54274404 76.75 44.5 C89.08083591 51.53296929 101.39177644 58.59938388 113.67724609 65.71142578 C115.84891337 66.96853231 118.02113347 68.22468422 120.19384766 69.47998047 C123.4435986 71.35845198 126.69088353 73.24111734 129.9375 75.125 C130.90655273 75.68461426 131.87560547 76.24422852 132.87402344 76.82080078 C138.68722241 80.20215504 144.32198549 83.769892 149.875 87.5625 C150.74125 88.14 151.6075 88.7175 152.5 89.3125 C161.45351263 97.79477513 167.59897854 109.71999048 168.2109375 122.078125 C168.24028928 123.65603074 168.2528919 125.23432393 168.25 126.8125 C168.24983887 127.63935303 168.24967773 128.46620605 168.24951172 129.31811523 C168.11335053 136.67440257 167.30942634 145.12807366 161.875 150.5625 C161.318125 148.70625 161.318125 148.70625 160.75 146.8125 C154.45737477 128.22730455 144.30958653 120.70234546 127.875 111.5625 C125.92275516 110.46559434 123.97095314 109.36790028 122.01953125 108.26953125 C117.77754263 105.8858166 113.53102539 103.51042748 109.28125 101.140625 C103.25917572 97.78090322 97.25161422 94.39611069 91.25 91 C89.83702637 90.20070068 89.83702637 90.20070068 88.39550781 89.38525391 C84.61030034 87.24350385 80.82567107 85.10073314 77.04101562 82.95800781 C74.19426826 81.34654896 71.34724369 79.73558176 68.5 78.125 C67.55769531 77.59197266 66.61539063 77.05894531 65.64453125 76.50976562 C58.52443827 72.48599531 51.38900888 68.49009042 44.25 64.5 C35.70154885 59.72091358 27.17998972 54.89807132 18.68261719 50.02880859 C9.42543642 44.72569119 0.13484012 39.48217876 -9.15625 34.23876953 C-12.23004964 32.50318496 -15.30268366 30.76555258 -18.375 29.02734375 C-19.40061035 28.44718506 -20.4262207 27.86702637 -21.48291016 27.26928711 C-23.43062386 26.16745295 -25.37822332 25.0654168 -27.32568359 23.96313477 C-29.08611291 22.96757614 -30.84730918 21.97337214 -32.609375 20.98071289 C-34.29910208 20.02810957 -35.98657797 19.07150297 -37.671875 18.11108398 C-38.46851563 17.66063721 -39.26515625 17.21019043 -40.0859375 16.74609375 C-40.7876709 16.34704834 -41.4894043 15.94800293 -42.21240234 15.53686523 C-45.92990749 13.64299709 -48.79615323 13.22256245 -52.8125 14.25 C-55.93221762 16.02065054 -57.59492635 17.9074494 -58.69503784 21.34233093 C-59.21116425 24.00742104 -59.25223676 26.49421635 -59.25439453 29.21020508 C-59.25750641 30.36849823 -59.26061829 31.52679138 -59.26382446 32.72018433 C-59.26184052 33.99459381 -59.25985657 35.2690033 -59.2578125 36.58203125 C-59.2588323 37.9516706 -59.26017412 39.32130974 -59.2618103 40.69094849 C-59.2645509 44.45756917 -59.25995528 48.22414955 -59.25357056 51.99076462 C-59.24998739 54.38342155 -59.24837607 56.7760724 -59.24731445 59.16873169 C-59.22992417 91.01922799 -58.88767598 122.86537722 -58.51833057 154.71340752 C-58.18333075 183.66482145 -57.97593156 212.60882281 -58.125 241.5625 C-60.02332392 241.59479984 -61.92180905 241.61770226 -63.8203125 241.63671875 C-64.87750488 241.65049561 -65.93469727 241.66427246 -67.02392578 241.6784668 C-74.33788104 241.40495642 -80.04432973 238.87948051 -85.125 233.5625 C-88.35954218 228.35820457 -90.21100678 223.3860424 -90.31445312 217.23730469 C-90.3312059 216.37144745 -90.34795868 215.50559021 -90.36521912 214.61349487 C-90.37875931 213.66338531 -90.3922995 212.71327576 -90.40625 211.734375 C-90.42434219 210.71570343 -90.44243439 209.69703186 -90.46107483 208.64749146 C-90.5206614 205.20255773 -90.5730505 201.75755685 -90.625 198.3125 C-90.66510999 195.84260786 -90.70539813 193.3727186 -90.74584961 190.90283203 C-90.86900032 183.22375738 -90.98144808 175.54454858 -91.09175873 167.86528015 C-91.12566866 165.51617872 -91.16008484 163.16708518 -91.19464111 160.81799316 C-91.52885826 138.07249201 -91.81667683 115.32681605 -92.05022717 92.58005524 C-92.10417865 87.37911937 -92.16606427 82.17833001 -92.23242188 76.97753906 C-92.3127275 70.64563586 -92.37061481 64.31379284 -92.41110229 57.98150635 C-92.4283758 55.74425787 -92.45245768 53.50704902 -92.48416138 51.2699585 C-92.76561797 30.7317367 -90.52313971 12.53156917 -75.82421875 -3.140625 C-51.54042798 -23.80469008 -24.19337721 -14.3441608 0 0 Z " fill="#FFFFFF" transform="translate(407.125,15.4375)"/>
<path d="M0 0 C1.6986227 -0.03157893 3.39702695 -0.07927143 5.09472656 -0.14355469 C19.03848402 -0.66442264 19.03848402 -0.66442264 23.23095703 2.03027344 C24.89250989 4.13010073 25.88631309 6.03039444 26.87329102 8.51489258 C27.19144775 9.19656494 27.50960449 9.8782373 27.83740234 10.58056641 C28.80024316 12.76038458 29.62297848 14.96250282 30.43579102 17.20239258 C33.7166783 25.7939101 37.3328131 34.1992133 41.12329102 42.57739258 C41.68873809 43.82950061 42.25416766 45.08161655 42.81958008 46.33374023 C43.67271809 48.22197873 44.52626277 50.11002986 45.38076782 51.99765015 C48.177807 58.17820933 50.9350632 64.37611669 53.68579102 70.57739258 C54.681873 72.82088738 55.67796707 75.06437683 56.67407227 77.30786133 C57.18921387 78.46850098 57.70435547 79.62914062 58.23510742 80.82495117 C59.98180824 84.75988474 61.73015017 88.69408818 63.47875977 92.62817383 C63.79280762 93.33473114 64.10685547 94.04128845 64.43041992 94.76925659 C65.74135986 97.71858209 67.05235227 100.66788426 68.36334229 103.6171875 C72.17864638 112.20051633 75.9931623 120.78419369 79.80551147 129.36883545 C81.6133329 133.43954541 83.42151928 137.51009321 85.22973633 141.58062744 C86.10767437 143.55723602 86.98544502 145.53391895 87.86303711 147.51068115 C88.69937275 149.39448303 89.5360036 151.27815389 90.37295532 153.16168213 C91.16021544 154.93424415 91.94636512 156.70729986 92.73129272 158.480896 C94.31720223 162.05726013 95.91014566 165.62563494 97.59838867 169.1550293 C98.06680176 170.13874512 98.53521484 171.12246094 99.01782227 172.13598633 C99.40945557 172.93319092 99.80108887 173.73039551 100.20458984 174.55175781 C100.87329102 176.51489258 100.87329102 176.51489258 99.87329102 179.51489258 C95.29363225 181.80472196 88.55733662 180.82645908 83.47070312 180.86499023 C81.86931819 180.88153782 80.26800675 180.90881267 78.66699219 180.94702148 C76.35385986 181.00191989 74.04245665 181.02368176 71.72875977 181.03833008 C71.01713181 181.06099945 70.30550385 181.08366882 69.5723114 181.10702515 C65.65406024 181.09045353 64.03096378 180.642898 60.94995117 178.14160156 C58.79884201 175.42072412 57.94068715 173.52905871 57.06079102 170.20239258 C55.5969276 165.41313866 53.75329971 161.06518332 51.43579102 156.63989258 C45.62527976 145.39245217 40.79337384 133.6967384 35.82006836 122.06323242 C34.08561739 118.00743433 32.3423387 113.95547929 30.59724426 109.9042511 C22.70527393 91.58231386 14.84577993 73.25124352 7.3125 54.77832031 C6.86720947 53.6897876 6.42191895 52.60125488 5.96313477 51.47973633 C5.58020264 50.53735107 5.19727051 49.59496582 4.80273438 48.62402344 C4.04987074 46.57083281 4.04987074 46.57083281 2.87329102 45.51489258 C2.61451172 46.12220215 2.35573242 46.72951172 2.08911133 47.35522461 C-5.27738248 64.62696525 -12.74485369 81.85363452 -20.24203491 99.06900024 C-25.93234509 112.13770295 -31.58851216 125.22004121 -37.18920898 138.32739258 C-41.58718204 148.61572547 -46.00835083 158.89278077 -50.50170898 169.13989258 C-50.9606958 170.19023682 -51.41968262 171.24058105 -51.89257812 172.32275391 C-52.30757568 173.26530029 -52.72257324 174.20784668 -53.15014648 175.17895508 C-53.69034424 176.40799561 -53.69034424 176.40799561 -54.24145508 177.66186523 C-55.12670898 179.51489258 -55.12670898 179.51489258 -56.12670898 180.51489258 C-58.76959255 180.61587508 -61.38577857 180.65459999 -64.02905273 180.64770508 C-64.82195206 180.6486618 -65.61485138 180.64961853 -66.43177795 180.65060425 C-68.11223428 180.65128609 -69.79269323 180.64943154 -71.47314453 180.64526367 C-74.04978344 180.63992248 -76.62624746 180.64520486 -79.20288086 180.65161133 C-80.83243854 180.65095041 -82.46199611 180.64966896 -84.09155273 180.64770508 C-84.86554916 180.64972931 -85.63954559 180.65175354 -86.43699646 180.65383911 C-91.89679732 180.62984841 -91.89679732 180.62984841 -94.12670898 179.51489258 C-93.54672237 175.07909205 -92.41643247 171.45146988 -90.59936523 167.37036133 C-90.33943283 166.78104324 -90.07950043 166.19172516 -89.81169128 165.58454895 C-88.94388871 163.62094388 -88.0665149 161.66176797 -87.18920898 159.70239258 C-86.56253042 158.28929223 -85.93657271 156.87587202 -85.3112793 155.4621582 C-83.96295807 152.41519243 -82.61134932 149.36971184 -81.25805664 146.32495117 C-79.09636927 141.45453869 -76.95887083 136.57373016 -74.82592773 131.69067383 C-66.57815654 112.81756906 -58.231115 93.99270255 -49.75244141 75.22216797 C-46.08330118 67.09712459 -42.4296553 58.96607126 -38.82592773 50.81176758 C-38.4787117 50.02617462 -38.13149567 49.24058167 -37.77375793 48.43118286 C-37.08390122 46.87015866 -36.39404626 45.30913369 -35.70419312 43.74810791 C-16.46670737 0.23630352 -16.46670737 0.23630352 0 0 Z " fill="#FFC22F" transform="translate(643.126708984375,63.485107421875)"/>
<path d="M0 0 C1.70528439 -0.0215592 3.41045874 -0.05563812 5.11523438 -0.10253906 C7.57407017 -0.16959388 10.03061284 -0.19700698 12.49023438 -0.21606445 C13.62800323 -0.25781044 13.62800323 -0.25781044 14.78875732 -0.30039978 C18.98117786 -0.28417998 20.58483784 0.18778104 23.69116211 3.07763672 C25.65635215 6.15161526 26.99775435 8.82819885 28.18164062 12.2644043 C30.01402629 17.30364293 31.98563597 22.21691665 34.17382812 27.1081543 C34.47585648 27.78458481 34.77788483 28.46101532 35.08906555 29.15794373 C35.72624083 30.5812177 36.36458209 32.00397017 37.0039978 33.42623901 C38.77224011 37.35995738 40.52902202 41.29879582 42.28710938 45.23706055 C42.65563522 46.06190445 43.02416107 46.88674835 43.40385437 47.73658752 C47.2619211 56.38042305 51.06142053 65.04970628 54.85787964 73.72073364 C60.8386087 87.37972863 66.85413955 101.02080846 72.97387695 114.61816406 C75.97640804 121.29061324 78.96188737 127.97010957 81.92773438 134.65893555 C82.28173309 135.4570314 82.63573181 136.25512726 83.00045776 137.07740784 C84.72760663 140.97200109 86.45309446 144.86731888 88.17626953 148.76367188 C88.81466486 150.20407062 89.45317201 151.64441981 90.09179688 153.0847168 C90.55212814 154.12667458 90.55212814 154.12667458 91.02175903 155.18968201 C92.59035473 158.72133937 94.20043932 162.22524978 95.88574219 165.70288086 C96.38214706 166.73410568 96.38214706 166.73410568 96.88858032 167.78616333 C97.51884698 169.08832796 98.15741244 170.38651934 98.80551147 171.67990112 C100.9290147 176.07306333 100.9290147 176.07306333 99.81835938 179.4050293 C95.23870061 181.69485868 88.50240498 180.7165958 83.41577148 180.75512695 C81.81438655 180.77167454 80.21307511 180.79894939 78.61206055 180.8371582 C76.29892822 180.89205661 73.98752501 180.91381848 71.67382812 180.9284668 C70.96220016 180.95113617 70.2505722 180.97380554 69.51737976 180.99716187 C65.81579466 180.9815066 63.99685481 180.53852862 61.00878906 178.30371094 C58.59765678 175.11296488 57.28796262 172.25599261 55.91601562 168.50268555 C55.40850681 167.15805901 54.89817584 165.8144948 54.38525391 164.47192383 C54.12770325 163.79284973 53.87015259 163.11377563 53.60479736 162.41412354 C51.65609231 157.43581355 49.35584109 152.60219051 47.12750244 147.74459839 C45.58357093 144.37548491 44.05435582 140.99970542 42.52539062 137.6237793 C42.21317566 136.93448837 41.90096069 136.24519745 41.57928467 135.53501892 C32.50071822 115.45258143 23.97156676 95.12549359 15.46142578 74.79736328 C11.33906732 64.95849324 7.12476578 55.16477447 2.81835938 45.4050293 C2.3297644 46.53255615 2.3297644 46.53255615 1.83129883 47.68286133 C-0.6306661 53.36431885 -3.09263102 59.04577637 -5.55459595 64.72723389 C-5.85820038 65.4278595 -6.16180481 66.12848511 -6.47460938 66.8503418 C-7.71028646 69.7019043 -8.94596354 72.5534668 -10.18164062 75.4050293 C-10.46364319 76.05580444 -10.74564575 76.70657959 -11.03619385 77.3770752 C-11.58350527 78.64010155 -12.13081767 79.90312747 -12.6781311 81.16615295 C-13.21360053 82.40185709 -13.74906197 83.63756468 -14.28451538 84.87327576 C-15.62763986 87.97289041 -16.97090978 91.07244188 -18.31445312 94.171875 C-20.96464879 100.28603554 -23.61273937 106.40108644 -26.25585938 112.51831055 C-32.34656195 126.60743853 -38.47794719 140.67829347 -44.64321899 154.73495483 C-45.45633547 156.58884258 -46.26914387 158.44286548 -47.08163452 160.29702759 C-48.22192432 162.89862485 -49.36365451 165.49958485 -50.50585938 168.1003418 C-50.84798462 168.88125687 -51.19010986 169.66217194 -51.54260254 170.4667511 C-51.86136353 171.19162216 -52.18012451 171.91649323 -52.50854492 172.66333008 C-52.7846611 173.29232208 -53.06077728 173.92131409 -53.34526062 174.56936646 C-54.24320736 176.54015421 -55.20237498 178.47353157 -56.18164062 180.4050293 C-61.27196904 180.42971014 -66.36226278 180.44788012 -71.45263672 180.45996094 C-73.18506476 180.46499612 -74.91748855 180.47182462 -76.64990234 180.48046875 C-79.13705496 180.49256995 -81.62415149 180.49826568 -84.11132812 180.50268555 C-84.88846161 180.50784683 -85.66559509 180.51300812 -86.46627808 180.51832581 C-91.95389721 180.518901 -91.95389721 180.518901 -94.18164062 179.4050293 C-93.65104548 173.4627589 -91.85109179 168.78787822 -89.37695312 163.3894043 C-88.98608017 162.51733337 -88.59520721 161.64526245 -88.19248962 160.74676514 C-86.90521628 157.87917369 -85.60585871 155.01722609 -84.30664062 152.1550293 C-83.4012776 150.14310236 -82.49691404 148.13072539 -81.59350586 146.11791992 C-80.19438679 143.0012983 -78.79450275 139.88504063 -77.39128113 136.77026367 C-73.02387329 127.07540384 -68.72552918 117.35078936 -64.44003296 107.61950684 C-49.86339956 74.53296314 -35.17636554 41.47858427 -19.74414062 8.7800293 C-19.38481445 8.01674316 -19.02548828 7.25345703 -18.65527344 6.46704102 C-14.66753405 -1.91604656 -8.5181809 0.0810242 0 0 Z " fill="#FFC22F" transform="translate(213.181640625,63.594970703125)"/>
<path d="M0 0 C9.92806557 -0.09320937 19.85602485 -0.16402102 29.78444099 -0.20724869 C34.39600345 -0.22800933 39.00726373 -0.25611271 43.61865234 -0.30175781 C48.07963857 -0.34563135 52.54033652 -0.36922344 57.00152206 -0.37950897 C58.69255986 -0.38682667 60.3835842 -0.40111336 62.07449722 -0.42292023 C80.88968344 -0.65563486 97.23349044 3.55988984 111.4375 16.625 C123.71011443 29.78576416 126.82461581 46.42533349 126.34765625 63.85546875 C125.58043806 78.82309817 118.94573279 91.82801729 108 102 C103.05564785 105.76677716 98.22569426 108.66650356 92.31225586 110.59423828 C91.50404892 110.85907013 90.69584198 111.12390198 89.86314392 111.39675903 C89.24830643 111.59582855 88.63346893 111.79489807 88 112 C88.25341156 112.51713058 88.50682312 113.03426117 88.76791382 113.56706238 C91.46336836 119.06819661 94.15716359 124.57014128 96.85009766 130.07250977 C97.84839081 132.11177046 98.84707364 134.15084045 99.84619141 136.18969727 C105.17463088 147.06389927 110.484287 157.94723495 115.7265625 168.86328125 C116.37460342 170.20243843 116.37460342 170.20243843 117.03573608 171.56864929 C117.42693634 172.38686661 117.8181366 173.20508392 118.22119141 174.0480957 C118.56614655 174.76584671 118.91110168 175.48359772 119.26651001 176.22309875 C120 178 120 178 120 180 C106.47 180 92.94 180 79 180 C69.35801597 159.20947194 59.77642684 138.40908368 50.515625 117.44677734 C49.87506083 115.99704343 49.234437 114.54733588 48.59375 113.09765625 C48.28671143 112.40283142 47.97967285 111.70800659 47.66333008 110.99212646 C44.42750334 103.68328426 41.10843939 96.41263943 37.74023438 89.16381836 C37.37220703 88.36468018 37.00417969 87.56554199 36.625 86.7421875 C36.30789063 86.0601123 35.99078125 85.37803711 35.6640625 84.67529297 C35 83 35 83 35 81 C36.03294189 80.9906543 37.06588379 80.98130859 38.13012695 80.97167969 C42.01270532 80.93139457 45.8945229 80.86553558 49.77661133 80.79248047 C51.44740932 80.76449175 53.11833428 80.74316888 54.78930664 80.72900391 C70.16974846 80.95288961 70.16974846 80.95288961 83.69287109 74.55371094 C88.62966383 68.95339917 89.39647787 64.36319748 89.24609375 57.109375 C88.76558761 51.0382181 87.51908758 46.70434216 83.4375 42.125 C75.69476099 36.61102594 66.12190653 36.53894646 56.9921875 36.48828125 C55.7855545 36.47033005 54.57892151 36.45237885 53.33572388 36.43388367 C49.51551719 36.38008775 45.69543324 36.34598299 41.875 36.3125 C39.27081637 36.2792999 36.66664887 36.24480778 34.0625 36.20898438 C27.70844348 36.12437894 21.35437046 36.05590003 15 36 C14.53311768 34.91025879 14.06623535 33.82051758 13.58520508 32.69775391 C12.95934083 31.24893975 12.33327202 29.80021395 11.70703125 28.3515625 C11.40091919 27.63556885 11.09480713 26.9195752 10.77941895 26.18188477 C8.62288527 21.20833448 6.11146371 16.638153 3.22265625 12.046875 C0.78480555 7.96561696 0 4.71599627 0 0 Z " fill="#FFC22F" transform="translate(677,64)"/>
<path d="M0 0 C15.49091347 -0.12032643 15.49091347 -0.12032643 22.1640625 -0.14648438 C26.69314296 -0.16432286 31.22203914 -0.18527841 35.75097656 -0.22631836 C39.40794628 -0.25924421 43.06471798 -0.27692187 46.72182465 -0.28463173 C48.1074815 -0.29011635 49.49312921 -0.30082379 50.87870026 -0.31719017 C69.8905672 -0.53254566 84.76128402 4.97025754 98.5234375 18.1640625 C110.06036878 31.37512261 114.01811548 47.67009111 113.18359375 64.96972656 C111.77025692 80.59912694 104.26684533 92.96379173 92.55859375 103.1171875 C83.8908195 110 83.8908195 110 79 110 C84.16928056 121.15476332 90.61043006 131.51701188 97 142 C101.95536912 150.14027999 106.81644901 158.32454871 111.5 166.625 C111.93393066 167.38377441 112.36786133 168.14254883 112.81494141 168.92431641 C113.21632324 169.64280762 113.61770508 170.36129883 114.03125 171.1015625 C114.38767578 171.73400879 114.74410156 172.36645508 115.11132812 173.01806641 C116.14156695 175.3157254 116.58621765 177.52320177 117 180 C111.59262281 180.24850079 106.18861044 180.42922598 100.77685547 180.54931641 C98.93935224 180.59939782 97.10224345 180.66749071 95.26611328 180.75439453 C80.13128034 181.45241992 80.13128034 181.45241992 75.16479492 178.06787109 C73.04305332 175.48656554 71.51923346 172.97160199 70 170 C69.01831833 168.42361193 68.03529273 166.8480598 67.05078125 165.2734375 C66.12839302 163.64604443 65.2159371 162.01298951 64.3125 160.375 C63.80904053 159.47894043 63.30558105 158.58288086 62.78686523 157.65966797 C58.41930193 149.85097378 54.17159851 141.97599926 49.93359375 134.09643555 C46.14999748 127.07386866 42.26119201 120.11839242 38.3125 113.1875 C34.17123678 105.90564359 30.10788002 98.59092964 26.1875 91.1875 C25.76057861 90.38658936 25.33365723 89.58567871 24.89379883 88.76049805 C22 83.24436483 22 83.24436483 22 81 C23.00264893 80.9906543 24.00529785 80.98130859 25.03833008 80.97167969 C28.80910371 80.93137712 32.57909544 80.86551415 36.34936523 80.79248047 C37.97165778 80.76450159 39.59408081 80.74317397 41.21655273 80.72900391 C52.1892785 80.62749858 61.22301312 79.81205512 71 74.3125 C74.70845826 70.02459514 75.81610447 65.05962999 76.3125 59.5 C75.6091671 51.3203088 75.6091671 51.3203088 71.875 44.1875 C65.53270732 39.36184253 59.50451489 36.91439743 51.52880859 36.81054688 C49.88723282 36.78547058 49.88723282 36.78547058 48.2124939 36.7598877 C47.03635529 36.74631226 45.86021667 36.73273682 44.6484375 36.71875 C43.43805817 36.70034058 42.22767883 36.68193115 40.98062134 36.66296387 C35.79706711 36.58423078 30.61338361 36.51639939 25.4296875 36.44775391 C21.64837007 36.39613021 17.8671678 36.33885218 14.0859375 36.28125 C12.90575043 36.26767456 11.72556335 36.25409912 10.50961304 36.2401123 C9.42153351 36.22339478 8.33345398 36.20667725 7.21240234 36.18945312 C6.25183929 36.17692505 5.29127625 36.16439697 4.30160522 36.15148926 C2 36 2 36 0 35 C0 23.45 0 11.9 0 0 Z " fill="#FFC22F" transform="translate(0,64)"/>
<path d="M0 0 C9.51962122 -0.11662508 19.03899087 -0.20508153 28.55917454 -0.25906086 C32.98135954 -0.28498806 37.40305043 -0.32007075 41.82495117 -0.37719727 C46.1044127 -0.43212809 50.38340356 -0.46154687 54.66319084 -0.47438622 C56.2836541 -0.483518 57.90409601 -0.50134505 59.52435493 -0.52865028 C78.86213782 -0.84112807 95.43177093 4.99858724 109.74609375 18.5546875 C122.48714083 32.37772991 124.81265195 48.38638157 124.17919922 66.40039062 C123.18511305 80.82141185 115.53287524 93.41444129 105 103 C98.95254377 107.25999195 93.12248813 110.15277116 86 112 C86.27561768 112.54599854 86.55123535 113.09199707 86.83520508 113.65454102 C93.59513405 127.06431148 100.1851997 140.54463806 106.62402344 154.11132812 C108.04492 157.09430331 109.47806511 160.07114261 110.9140625 163.046875 C111.37997803 164.0155249 111.84589355 164.9841748 112.32592773 165.98217773 C113.21582379 167.83201904 114.10845067 169.68054977 115.00415039 171.52758789 C115.39852295 172.3499292 115.79289551 173.17227051 116.19921875 174.01953125 C116.54815186 174.74245361 116.89708496 175.46537598 117.2565918 176.21020508 C118 178 118 178 118 180 C104.47 180 90.94 180 77 180 C69.19769837 163.33144653 61.56099475 146.61135832 54.12109375 129.77880859 C50.67170334 121.98035024 47.19388349 114.19673916 43.6484375 106.44140625 C43.29741974 105.67308975 42.94640198 104.90477325 42.58474731 104.11317444 C40.90202319 100.43266639 39.21424004 96.7545752 37.52001953 93.0793457 C36.91949901 91.76908758 36.31907053 90.45878727 35.71875 89.1484375 C35.19216797 88.00552246 34.66558594 86.86260742 34.12304688 85.68505859 C33 83 33 83 33 81 C34.03294189 80.9906543 35.06588379 80.98130859 36.13012695 80.97167969 C40.01270532 80.93139457 43.8945229 80.86553558 47.77661133 80.79248047 C49.44740932 80.76449175 51.11833428 80.74316888 52.78930664 80.72900391 C68.90782416 80.65214039 68.90782416 80.65214039 83.0625 73.5625 C87.60554507 67.55395652 87.99686319 61.30736319 87 54 C84.63805975 47.2181054 81.32798846 42.3351101 75.02734375 38.8046875 C70.25397197 36.91005438 65.36849516 36.80546337 60.29296875 36.68359375 C59.20487663 36.6524221 59.20487663 36.6524221 58.09480286 36.62062073 C55.79245887 36.55557785 53.49000718 36.49645227 51.1875 36.4375 C49.62043186 36.39427165 48.05337435 36.35065602 46.48632812 36.30664062 C42.65766064 36.19994332 38.8288855 36.09855031 35 36 C34.55487061 35.06406006 34.10974121 34.12812012 33.65112305 33.16381836 C26.09401896 17.50625457 16.62329404 7.34707591 0 1 C0 0.67 0 0.34 0 0 Z " fill="#FFC22F" transform="translate(776,64)"/>
<path d="M0 0 C5.27756415 5.46604859 8.16204574 13.11906616 8.4375 20.6875 C7.92882346 29.11058501 4.71018101 33.8301462 -1.25952148 39.65869141 C-6.07176415 43.76999717 -11.52282668 46.68087998 -17.0625 49.6875 C-18.30597387 50.3776662 -19.54847143 51.06959404 -20.79003906 51.76318359 C-23.31246797 53.17162414 -25.83801043 54.57421122 -28.36572266 55.97314453 C-33.70867055 58.94082222 -38.97943696 62.03111332 -44.25 65.125 C-46.21608285 66.27484728 -48.18222849 67.42458721 -50.1484375 68.57421875 C-51.59621582 69.42185791 -51.59621582 69.42185791 -53.07324219 70.28662109 C-58.00508069 73.17381184 -62.9396018 76.05639926 -67.875 78.9375 C-68.86234131 79.5140332 -69.84968262 80.09056641 -70.86694336 80.68457031 C-78.16640178 84.94224258 -85.48713411 89.16210264 -92.8125 93.375 C-101.81463684 98.55289799 -110.76444982 103.8120826 -119.6875 109.125 C-128.31676042 114.25349941 -136.96803207 119.33863434 -145.6875 124.3125 C-146.61328857 124.84568848 -147.53907715 125.37887695 -148.49291992 125.92822266 C-161.32573237 133.19726611 -173.38217579 136.18143815 -188.125 132.875 C-199.42962463 129.61722637 -212.2588536 123.37507898 -218.3046875 112.6953125 C-218.53414063 112.13585937 -218.76359375 111.57640625 -219 111 C-217.989375 111.165 -216.97875 111.33 -215.9375 111.5 C-189.53492594 114.636476 -170.806726 100.54899803 -149.0078125 87.5703125 C-142.33622199 83.59854426 -135.63773103 79.6731484 -128.9375 75.75 C-127.70620128 75.02875481 -126.4749188 74.3074819 -125.24365234 73.58618164 C-123.37570662 72.49193191 -121.50773661 71.39772379 -119.63967896 70.30366516 C-115.27445572 67.74703935 -110.91035775 65.18850132 -106.546875 62.62890625 C-94.40159692 55.50500508 -82.2504017 48.39154758 -70.08544922 41.30126953 C-59.27361411 34.9974988 -48.47853048 28.66522092 -37.68365479 22.33247375 C-33.74807424 20.02408829 -29.8110037 17.71826386 -25.87290955 15.41416931 C-23.18685883 13.84259796 -20.50118315 12.27038629 -17.81552124 10.69815063 C-16.53089565 9.9463496 -15.24608781 9.19485988 -13.96109009 8.44369507 C-12.17931085 7.40208043 -10.39818199 6.35936195 -8.6171875 5.31640625 C-7.09520752 4.42610718 -7.09520752 4.42610718 -5.54248047 3.51782227 C-3.66361563 2.39616846 -1.82069647 1.21379765 0 0 Z " fill="#FFFFFF" transform="translate(551,156)"/>
<path d="M0 0 C10.72793703 5.63289953 21.29080137 11.52287042 31.828125 17.50390625 C38.07870712 21.05048415 44.3507651 24.55798984 50.625 28.0625 C60.05196064 33.33311384 69.44903583 38.65256607 78.8125 44.03515625 C82.50530291 46.15496715 86.21607546 48.23945754 89.9375 50.30859375 C90.90977539 50.85306152 91.88205078 51.3975293 92.88378906 51.95849609 C94.75662292 53.00658114 96.63343665 54.04759441 98.51464844 55.08056641 C99.3502832 55.55026855 100.18591797 56.0199707 101.046875 56.50390625 C101.78776367 56.91455322 102.52865234 57.3252002 103.29199219 57.74829102 C105 59 105 59 106 62 C105.30777344 62.3810791 104.61554688 62.7621582 103.90234375 63.15478516 C90.55580866 70.51164499 77.26986739 77.94614535 64.12597656 85.66113281 C53.62579993 91.82091544 43.0522951 97.85030059 32.4750061 103.87617493 C27.99011961 106.43231657 23.51184443 108.9998455 19.03515625 111.5703125 C17.09062618 112.68572546 15.14598366 113.80094207 13.20129395 114.91607666 C11.94705166 115.63584945 10.69322305 116.35634361 9.43981934 117.07757568 C7.70708111 118.07447844 5.97272307 119.06856417 4.23828125 120.0625 C3.24868408 120.63097656 2.25908691 121.19945312 1.23950195 121.78515625 C-1 123 -1 123 -2 123 C-2.11217249 94.99579366 -2.06496363 67.00058048 -1.5625 39 C-1.54285187 37.83999481 -1.52320374 36.67998962 -1.50296021 35.48483276 C-1.29794023 23.62940799 -1.07657101 11.81454129 0 0 Z " fill="#FFC230" transform="translate(388,83)"/>
</svg>
